<?xml version="1.0" encoding="utf-8"?>
<!-- Generator: Adobe Illustrator 15.1.0, SVG Export Plug-In . SVG Version: 6.00 Build 0)  -->
<!DOCTYPE svg PUBLIC "-//W3C//DTD SVG 1.1//EN" "http://www.w3.org/Graphics/SVG/1.1/DTD/svg11.dtd">
<svg version="1.1" id="Layer_1" xmlns="http://www.w3.org/2000/svg" xmlns:xlink="http://www.w3.org/1999/xlink" x="0px" y="0px"
	 width="100.592px" height="100.592px" viewBox="0 0 100.592 100.592" enable-background="new 0 0 100.592 100.592"
	 xml:space="preserve">
<path fill="#FFFFFF" d="M50.303-0.024c-27.796,0-50.327,22.527-50.327,50.32c0,27.789,22.531,50.32,50.327,50.32
	c27.782,0,50.312-22.531,50.312-50.32C100.615,22.503,78.085-0.024,50.303-0.024z M63.23,49.997h-8.756v31.229h-12.98V49.997h-6.172
	V38.966h6.172v-7.143c0-5.109,2.426-13.098,13.099-13.098l9.614,0.037v10.709h-6.981c-1.135,0-2.751,0.57-2.751,3.004v6.49h9.892
	L63.23,49.997z"/>
</svg>
