<?xml version="1.0" encoding="utf-8"?>
<!-- Generator: Adobe Illustrator 15.1.0, SVG Export Plug-In . SVG Version: 6.00 Build 0)  -->
<!DOCTYPE svg PUBLIC "-//W3C//DTD SVG 1.1//EN" "http://www.w3.org/Graphics/SVG/1.1/DTD/svg11.dtd">
<svg version="1.1" id="Layer_1" xmlns="http://www.w3.org/2000/svg" xmlns:xlink="http://www.w3.org/1999/xlink" x="0px" y="0px"
	 width="100.592px" height="100.592px" viewBox="0 0 100.592 100.592" enable-background="new 0 0 100.592 100.592"
	 xml:space="preserve">
<g>
	<path fill="#FFFFFF" d="M38.99,44.705h0.005c1.359,0,2.505-0.537,3.395-1.551c1.391-1.584,2.006-4.184,1.641-6.951
		c-0.652-4.939-4.174-9.049-7.863-9.156l-0.146-0.004c-1.309,0-2.469,0.537-3.354,1.548c-1.374,1.567-1.957,4.048-1.592,6.807
		c0.646,4.933,4.248,9.196,7.858,9.308H38.99z"/>
	<path fill="#FFFFFF" d="M43.014,59.596c-0.358-0.246-0.74-0.504-1.126-0.773c-1.138-0.344-2.344-0.528-3.581-0.545h-0.147
		c-5.676,0-10.662,3.439-10.662,7.359c0,4.27,4.265,7.609,9.713,7.609c7.186,0,10.826-2.477,10.826-7.359
		c0-0.463-0.056-0.941-0.171-1.42C47.38,62.567,45.646,61.385,43.014,59.596z"/>
	<path fill="#FFFFFF" d="M50.296,0C22.516,0,0,22.517,0,50.297c0,27.775,22.516,50.295,50.296,50.295
		c27.775,0,50.296-22.52,50.296-50.295C100.592,22.517,78.071,0,50.296,0z M44.062,77.609c-2.119,0.613-4.416,0.925-6.816,0.925
		c-2.68,0-5.256-0.312-7.656-0.917c-4.646-1.175-8.084-3.397-9.688-6.258c-0.688-1.24-1.039-2.559-1.039-3.93
		c0-1.408,0.336-2.836,1-4.248c2.548-5.428,9.259-9.078,16.692-9.078h0.215c-0.602-1.064-0.896-2.162-0.896-3.324
		c0-0.578,0.072-1.162,0.227-1.76c-7.799-0.181-13.636-5.891-13.636-13.422c0-5.316,4.249-10.494,10.325-12.59
		c1.824-0.627,3.677-0.949,5.502-0.949h16.678c0.568,0,1.069,0.368,1.246,0.908c0.176,0.54-0.017,1.134-0.479,1.469l-3.729,2.697
		c-0.224,0.164-0.493,0.25-0.773,0.25h-1.333c1.723,2.067,2.738,5.01,2.738,8.322c0,3.65-1.855,7.109-5.211,9.74
		c-2.598,2.027-2.701,2.579-2.701,3.738c0.027,0.634,1.842,2.705,3.835,4.113c4.655,3.291,6.386,6.52,6.386,11.91
		C54.946,70.822,50.673,75.689,44.062,77.609z M81.729,49.003c0,0.725-0.589,1.31-1.31,1.31h-9.482v9.48
		c0,0.724-0.585,1.312-1.31,1.312h-2.697c-0.727,0-1.314-0.589-1.314-1.312v-9.48h-9.479c-0.725,0-1.31-0.585-1.31-1.31v-2.696
		c0-0.727,0.585-1.315,1.31-1.315h9.479v-9.479c0-0.725,0.588-1.31,1.314-1.31h2.697c0.725,0,1.31,0.585,1.31,1.31v9.479h9.482
		c0.721,0,1.31,0.589,1.31,1.315V49.003z"/>
</g>
</svg>
