<?xml version="1.0" encoding="utf-8"?>
<!-- Generator: Adobe Illustrator 15.1.0, SVG Export Plug-In . SVG Version: 6.00 Build 0)  -->
<!DOCTYPE svg PUBLIC "-//W3C//DTD SVG 1.1//EN" "http://www.w3.org/Graphics/SVG/1.1/DTD/svg11.dtd">
<svg version="1.1" id="Layer_1" xmlns="http://www.w3.org/2000/svg" xmlns:xlink="http://www.w3.org/1999/xlink" x="0px" y="0px"
	 width="100.592px" height="100.592px" viewBox="0 0 100.592 100.592" enable-background="new 0 0 100.592 100.592"
	 xml:space="preserve">
<g>
	<path fill="#FFFFFF" d="M67.566,50.329c0,9.49-7.72,17.21-17.211,17.21c-9.49,0-17.209-7.72-17.209-17.21
		c0-2.282,0.455-4.463,1.266-6.458h-9.396v25.767c0,3.326,2.704,6.031,6.031,6.031h38.612c3.327,0,6.038-2.705,6.038-6.031V43.871
		h-9.4C67.107,45.866,67.566,48.047,67.566,50.329z"/>
	<polygon fill="#FFFFFF" points="74.541,36.774 74.541,27.497 74.541,26.107 73.15,26.115 63.875,26.145 63.91,36.81 	"/>
	<path fill="#FFFFFF" d="M50.355,61.405c6.106,0,11.082-4.971,11.082-11.076c0-2.41-0.787-4.639-2.1-6.458
		c-2.017-2.79-5.286-4.618-8.982-4.618c-3.695,0-6.966,1.828-8.981,4.618c-1.312,1.819-2.099,4.048-2.099,6.458
		C39.275,56.435,44.247,61.405,50.355,61.405z"/>
	<path fill="#FFFFFF" d="M50.323-0.023C22.53-0.023,0,22.503,0,50.296c0,27.789,22.53,50.32,50.323,50.32
		c27.789,0,50.321-22.531,50.321-50.32C100.645,22.503,78.112-0.023,50.323-0.023z M81.826,43.871v25.767
		c0,6.707-5.458,12.162-12.167,12.162H31.047c-6.706,0-12.16-5.455-12.16-12.162V43.871V31.021c0-6.708,5.454-12.162,12.16-12.162
		h38.612c6.709,0,12.167,5.454,12.167,12.162V43.871z"/>
</g>
</svg>
