<?xml version="1.0" encoding="utf-8"?>
<!-- Generator: Adobe Illustrator 15.1.0, SVG Export Plug-In . SVG Version: 6.00 Build 0)  -->
<!DOCTYPE svg PUBLIC "-//W3C//DTD SVG 1.1//EN" "http://www.w3.org/Graphics/SVG/1.1/DTD/svg11.dtd">
<svg version="1.1" id="Layer_1" xmlns="http://www.w3.org/2000/svg" xmlns:xlink="http://www.w3.org/1999/xlink" x="0px" y="0px"
	 width="100.595px" height="100.592px" viewBox="0 0 100.595 100.592" enable-background="new 0 0 100.595 100.592"
	 xml:space="preserve">
<path fill="#FFFFFF" d="M50.299,0C22.52,0,0,22.521,0,50.297c0,27.779,22.52,50.295,50.299,50.295
	c27.776,0,50.296-22.516,50.296-50.295C100.595,22.521,78.075,0,50.299,0z M32.933,79.582H19.9V37.661h13.032V79.582z M26.416,31.93
	c-4.175,0-7.552-3.385-7.552-7.555c0-4.172,3.377-7.557,7.552-7.557c4.167,0,7.552,3.385,7.552,7.557
	C33.968,28.545,30.583,31.93,26.416,31.93z M81.734,79.582H68.718V59.195c0-4.863-0.098-11.118-6.774-11.118
	c-6.777,0-7.812,5.298-7.812,10.766v20.739H41.106V37.661h12.495v5.726h0.182c1.738-3.295,5.992-6.77,12.327-6.77
	c13.185,0,15.624,8.681,15.624,19.971V79.582z"/>
</svg>
