<?xml version="1.0" encoding="utf-8"?>
<!-- Generator: Adobe Illustrator 15.1.0, SVG Export Plug-In . SVG Version: 6.00 Build 0)  -->
<!DOCTYPE svg PUBLIC "-//W3C//DTD SVG 1.1//EN" "http://www.w3.org/Graphics/SVG/1.1/DTD/svg11.dtd">
<svg version="1.1" id="Layer_1" xmlns="http://www.w3.org/2000/svg" xmlns:xlink="http://www.w3.org/1999/xlink" x="0px" y="0px"
	 width="50px" height="50px" viewBox="0 0 50 50" enable-background="new 0 0 50 50" xml:space="preserve">
<g>
	<path fill="#FFFFFF" d="M16.918,30.255c-0.296-0.591-0.805-1.45-0.48-1.53c0.326-0.081,0.48-0.75,2.761-0.724
		c0.206,0.001,0.396,0.011,0.572,0.022c-0.543-0.309-0.844-0.766-1.44-1.16c-0.205-0.134-0.179-0.277,0.465,0.117
		c0.406,0.248,2.17,0.885,2.987,1.268c0.16-0.006,0.335-0.002,0.521,0.006c0.227,0.009,0.694-0.835,0.934-0.818
		c0.237,0.02,0.595,0.887,0.819,0.9c0.447,0.029,0.827-0.125,1.128-0.299c0,0,0.548-0.334,0.766-0.441
		c0.217-0.105,1.092-0.506,1.755-0.714c0.378-0.118,0.33,0.113-0.032,0.213c-0.459,0.126-1.026,0.575-1.251,0.991
		c0.287-0.062,0.661-0.094,1.148-0.086c1.065,0.015,1.854,0.098,2.365,0.236l0,0c0.344,0.082,1.029,0.02,1.285,0.448
		c0.145,0.243,0.22,0.452,0.258,0.587c0.029,0.104-0.123,0.197-0.191,0.09c-0.132-0.206-0.379-0.388-0.623-0.424
		c0.014,0.726-0.399,2.403-2.664,2.364c-0.715-0.013-1.249-0.136-1.645-0.332c-0.147-0.072,0.53-0.249,0.356-0.621
		c-0.443-0.943-1.302-0.386-1.342-0.846v-0.16c0.028-0.168,0.056-0.323,0.099-0.464c-0.338-0.084-0.689,0.094-0.888,0.222
		L24.19,30.97l-0.331-0.196v-2.053c-0.396,0.059-0.941,0.481-1.051,0.192c-0.077-0.202-0.635-0.217-1.116-0.233
		c0.155,0.175,0.208,0.355,0.217,0.502v0.08c-0.323,0.542-1.032,1.084-1.324,1.162c-0.258,0.07-0.071-0.154,0.054-0.268
		c0.412-0.371,0.409-0.955,0.036-0.662c-0.752,0.591-1.289,1.19-1.315,1.485c-0.027,0.295,1.181,0.348,0.644,0.752
		C17.481,31.999,17.214,30.845,16.918,30.255 M24.317,31.588c-0.259-0.214-0.333-0.107-0.511-0.054
		c-0.179,0.054-0.268-0.627-0.733-0.376c-0.465,0.251-0.77,0.948-0.949,1.61s-0.036,1.718,0.481,1.699
		c0.517-0.017,0.777-0.8,0.887-1.252c0.133-0.543,0.529-0.215,0.521,0.465s0.367,1.021,0.527,0.626
		c0.161-0.394,0.573-0.411,0.626-0.715S24.576,31.803,24.317,31.588 M32.055,37.248c0.134,0.876-0.456,1.191-1.388,2.454
		c-0.932,1.261-3.52,2.731-3.98,3.435c-0.563,0.859-1.315,0.671-2.674,0.671s-1.115,0.298-1.781-0.59
		c-0.645-0.859-2.633-2.229-2.952-2.604c-0.319-0.375-1.758-1.342-1.624-2.496c0.129-1.113-0.179-3.366-0.514-4.703
		c-0.704-0.436-1.629-1.408-1.762-1.792c-0.137-0.393-0.071-0.867,0.241-1.532c-0.292-0.617-0.357-1.392-0.098-1.92
		c-0.708-2.317-2.503-6.037-0.847-8.865c1.718-2.935,5.248-5.359,9.667-5.359c3.955,0,11.737,2.487,10.091,9.304
		c-0.796,3.298-1.564,4.839-1.564,6.208l-0.024,0.058l-0.063,0.513c0.162,0.666,0.384,1.324,0.293,1.896
		c-0.076,0.483-0.46,0.905-0.823,1.218c-0.339,0.292-0.535,0.566-0.76,0.768C31.463,35.047,31.934,36.458,32.055,37.248
		 M17.646,33.305c0.423,0.223,1.099,0.057,1.64,0.154c0.656-0.212,0.478-1.239,1.756-0.628l-0.026,0.21
		c-0.895-0.428-0.963,0.217-1.221,0.656c0.13,0.123,0.231,0.3,0.288,0.556c0.286,1.307-0.324,2.102,0.271,2.3
		c0.107,0.035,0.322,0.17,0.322,0.26c0,0.089-0.451-0.238-0.675,0.263c-0.013,0.029-0.025,0.053-0.037,0.074
		c0.026,0.282,0.103,0.551,0.264,0.646c0.34,0.202,0.367,0.095,0.367,0.095s0.025-0.502,0.081-0.732
		c0.015-0.064,0.095-0.064,0.106,0.027c0.031,0.25,0.022,0.765,0.042,0.954c0.027,0.26,0.538,0.459,0.899,0.445
		c0.363-0.014,0.013-1.03,0.228-1.125c0.214-0.093,0.202,1.051,0.261,1.104c0.061,0.054,0.182,0.144,0.182,0.144
		s0.093-1.513,0.698-1.744c0.409-0.157,0.802,0.496,0.851,0.604c0.071-0.388,0.31-0.685,0.552-0.665
		c0.266,0.023,0.597,0.499,0.597,0.499s0.147-0.681,0.742-0.229c0.068-0.286,0.321-0.476,0.638-0.298
		c0.025-0.194,0.062-0.31,0.294-0.465c0.251-0.17,0.102,0.106,0.102,0.106s-0.209,0.267-0.101,0.577
		c0.264,0.226,0.425,0.436,0.538,0.463c0.144,0.036,0.478-0.453,0.416-0.44c-0.063,0.014-0.334-0.438-0.236-0.537
		c0.1-0.099,0.206,0.374,0.376,0.374c0.171,0,0.431-0.285,0.439-0.554c0.009-0.268-0.135-0.581-0.135-0.581s0.091-0.182,0.137-0.092
		c0.044,0.089,0.186,0.638,0.292,0.575c0.107-0.063,0.216-0.948,0.216-0.948s-0.813-1.436-0.686-1.945
		c-0.588-0.545-0.977-1.188-1.489-0.999c0,0-0.125-0.169,0-0.232c0.732-0.368,1.504,1.11,2.81,1.432
		c1.307,0.322,2.017-0.11,2.765-0.787c0.705-0.639,0.558-1.659,0.404-2.229c-0.081,0.078-0.208,0.141-0.408,0.126
		c-0.923-0.068,0-1.691-0.564-2.254c-0.885-0.886-1.377-2.715-1.475-3.758c-0.021-0.222,0.177-0.267,0.177-0.267
		c0.054,1.048,0.595,2.796,1.588,3.56c0.439,0.336,0.494,0.805,0.477,1.126c0.275-1.218,0.883-2.811,1.475-5.259
		c1.646-6.816-5.608-9.312-9.562-9.312c-4.419,0-7.963,2.494-9.385,5.581c-0.937,2.036,0.234,5.344,0.9,7.633
		c0.66-0.74,0.715-2.785,0.093-3.902h0.196c0.645,1.154,0.937,3.462,0.212,4.133c-0.724,0.67-0.608,2.241,0.075,2.751l-0.218,0.076
		c-0.133-0.101-0.253-0.229-0.358-0.374c-0.258,0.533-0.266,0.703-0.131,1.09C15.844,31.955,16.93,32.93,17.646,33.305
		 M26.428,38.189c0.126,0.107,0.269-0.145,0.688,0.025c0.42,0.171-0.196-1.027-0.662-1.116c-0.465-0.09-0.367,0.027-0.357,0.149
		C26.114,37.483,26.302,38.082,26.428,38.189 M25.873,37.438c-0.08-0.106-0.599-0.134-0.588,0c0.02,0.234-0.002,1.244,0.312,1.244
		s0.59-0.357,0.59-0.357S25.954,37.545,25.873,37.438 M24.88,37.528c-0.116-0.26-0.563-0.496-0.653-0.231
		c-0.127,0.373-0.295,1.395-0.17,1.546c0.125,0.151,0.993,0.197,1.18-0.081C25.426,38.484,24.996,37.787,24.88,37.528
		 M23.708,37.607c-0.134-0.254-0.577-0.623-0.832-0.073c-0.138,0.296-0.349,1.08-0.242,1.269c0.107,0.188,0.812,0.312,1.147,0.164
		S23.841,37.863,23.708,37.607 M19.81,36.368c-0.006-0.365-0.017-0.801-0.06-1.222c-0.078,0.062-0.179,0.119-0.309,0.162
		C19.193,35.392,19.214,36.261,19.81,36.368 M31.545,36.84c-0.116-0.76-0.516-1.663-0.514-2.659
		c-0.167,0.052-0.369,0.075-0.632,0.063c0.064,0.396-0.223,0.96-0.357,1.258c-0.223,0.488,0.134,1.328,0.009,1.489
		c-0.033,0.042-0.156-0.092-0.21-0.077c-0.148,0.043-0.26,0.161-0.26,0.161l0.076,0.251l-0.125,0.076l-0.126-0.071
		c0,0-0.501,0.053-0.608,0.161c-0.107,0.106,0,0.429,0,0.429l-0.088,0.225l-0.181-0.421c0,0-0.285,0.24-0.51,0.413
		c-0.118,0.091,0.053,0.619,0.171,0.822c0.029,0.054-0.113,0.183-0.113,0.183l-0.228-0.506c0,0-0.179,0.144-0.465,0.328
		c-0.286,0.183,0.09,0.871,0.09,0.871l-0.144,0.179l-0.251-0.77c0,0-0.071-0.054-0.447,0.179c-0.375,0.233,0,1.021,0,1.021
		s-0.107,0.071-0.214,0.107c-0.107,0.035-0.216-0.931-0.216-0.931s-0.697,0.233-0.733,0.233s0,0.751,0,0.751s-0.089,0.07-0.186,0.09
		c-0.096,0.018,0.061-0.699-0.207-0.806c-0.269-0.107-1.064,0.08-1.064,0.08s0.031,0.711-0.071,0.725
		c-0.102,0.015-0.126-0.712-0.126-0.712s-0.658-0.133-0.777-0.133c-0.122,0-0.147,0.77-0.147,0.77s-0.027,0.008-0.135,0.008
		c-0.107,0-0.066-0.792-0.066-0.792s-0.538-0.175-0.637-0.106c-0.101,0.066,0.016,0.759,0.016,0.759l-0.197-0.034
		c0,0,0.066-0.658-0.135-0.806c-0.188-0.138-0.257-0.029-0.591-0.088c-0.021-0.004,0.044,0.583,0.029,0.701
		c-0.002,0.017-0.087-0.069-0.09-0.07c-0.022-0.004-0.076-0.651-0.094-0.657c-0.309-0.1-0.143-0.34-0.851-1.226
		c-0.751-0.94-0.833-0.095-1.253-1.299c-0.148-0.427-0.569-1.322-0.919-2.114c0.132,1.062,0.166,2.216,0.172,3.089
		c0.007,1.162,0.821,1.74,1.141,2.116c0.319,0.375,2.333,1.737,3.046,2.54c0.526,0.593,0.328,0.653,1.687,0.653
		s1.94,0.06,2.594-0.733c0.631-0.765,3.027-2.147,3.958-3.408C31.497,37.891,31.679,37.714,31.545,36.84 M28.279,39.335
		c0.054,0.151-0.67,0.438-0.743,0.707c-0.071,0.268-0.822,0.572-0.822,0.572s-0.289,0.002-0.309,0.188
		c-0.011,0.107-0.953,0.269-0.953,0.269s-0.161-0.295-0.47-0.039c-0.309,0.254-1.006-0.161-1.006-0.161l-0.215-0.015
		c-0.321,0.134-0.55,0.134-0.858,0c-0.309-0.133-0.577,0.135-0.898-0.16c-0.322-0.295-0.403-0.081-0.403-0.081v0.241
		c0,0,0.528,0.064,0.845,0.336c0.286,0.243,0.574,0.162,0.574,0.162l0.235-0.106c0,0,0.363-0.105,0.655,0.006
		c0,0,0.435,0.241,0.838,0.114c0.164-0.052,0.434-0.092,0.624,0.04c0.219,0.15,1.398-0.384,1.416-0.545
		c0.019-0.161,0.856-0.396,0.974-0.584c0.116-0.188,0.67-0.782,0.67-0.782S28.387,39.263,28.279,39.335 M21.042,36.695
		c-0.105,0.133-0.247,0.389,0,0.228c0.246-0.161,0.452,0.028,0.868,0.229C21.552,36.49,21.185,36.518,21.042,36.695 M4.235,8.322
		c0.596-0.597,1.054-1.321,1.25-2.171C4.971,5.69,4.6,5.376,4.6,5.376s-1.081,1.218-1.376,1.62C3.224,6.996,3.681,7.578,4.235,8.322
		 M5.349,9.879c0.605-0.822,1.172-1.667,1.293-2.663C6.376,6.963,6.11,6.716,5.862,6.49C5.712,7.4,5.256,8.206,4.711,8.969
		C4.93,9.273,5.15,9.583,5.349,9.879 M6.103,11.147c1.315-1.021,1.771-1.584,2.496-1.637C8.475,9.12,7.863,8.425,7.153,7.714
		c-0.165,1.097-0.666,2.077-1.278,2.993C5.972,10.875,6.05,11.024,6.103,11.147 M0.968,3.449C0.968,3.201,1.177,3,1.436,3
		c0.259,0,0.469,0.201,0.469,0.449c0,0.018-0.003,0.035-0.005,0.052c0.558-0.199,1.243,0.268,1.243,0.268L1.579,5.081
		c0,0-0.272-0.704-0.089-1.187C1.472,3.896,1.455,3.899,1.436,3.899C1.177,3.899,0.968,3.698,0.968,3.449 M1.198,3.449
		c0,0.126,0.106,0.229,0.237,0.229c0.132,0,0.238-0.102,0.238-0.229c0-0.126-0.106-0.229-0.238-0.229
		C1.304,3.221,1.198,3.323,1.198,3.449 M13.677,16.988c-0.366-0.32-2.995-3.139-3.032-3.103C10.157,14.334,9.73,14.62,9.1,14.876
		c0.726,0.986,2.493,2.948,4.863,5.42c0.351-0.886,0.774-1.75,1.395-2.486c-2.682-2.705-4.219-4.4-4.219-4.4
		c-0.055,0.056-0.11,0.111-0.165,0.166c-0.027,0.027,2.797,2.923,3.107,3.314C14.128,16.948,13.729,17.033,13.677,16.988
		 M32.391,33.309l-0.652,0.689l0.86,1.111l0.118-0.266c0,0,10.773,8.194,13.597,9.698c-2.127,0-13.165-8.911-13.717-9.357
		l-0.436,0.697l0.371,2.148c3.643,3.138,6.841,5.602,8.808,6.547c4.616,2.218,8.66,1.216,8.66,1.216
		C43.871,42.163,37.696,37.622,32.391,33.309 M1.615,13.731c-2.228-2.506-1.371-6.405,0.784-7.657L1.728,5.403L3.419,3.9
		l0.778,1.234c0,0-0.631,0.792-1.181,1.45c-0.618,0.738-2.619,3.907,0.662,5.466c1.806,0.859,2.631-0.719,4.061-1.763
		c1.41-1.029,3.399-0.805,3.676,0.832c0.349,2.058-2.943,3.668-3.542,3.865C7.274,15.181,4.042,16.46,1.615,13.731 M6.487,12.211
		c3.16-1.119,3.893,0.452,3.893,0.452s1.183-0.955,0.318-1.607C9.27,9.979,7.001,11.656,6.487,12.211 M5.056,13.159
		c1.395-0.179,3.382-0.39,3.846,0.591c0.296,0.188,1.253-0.545,0.591-0.967C8.003,11.837,5.056,13.159,5.056,13.159 M2.032,12.079
		c0.698,1.79,2.637,2.845,4.938,2.261c1.534-0.389,0.479-0.854-0.13-0.711c-0.608,0.143-3.162,0.907-4.584-1.436
		C2.08,12.085,2.032,12.079,2.032,12.079 M13.501,13.016c0.597-0.268-0.408-1.869-1.718-1.645c-0.018,0.295-0.053,0.786-0.482,1.377
		C12.195,12.748,12.928,12.139,13.501,13.016 M47.083,6.996c-0.295-0.402-1.376-1.62-1.376-1.62s-0.371,0.314-0.886,0.774
		c0.196,0.85,0.653,1.574,1.25,2.171C46.626,7.578,47.083,6.996,47.083,6.996 M45.596,8.969c-0.545-0.763-1.001-1.569-1.15-2.479
		c-0.249,0.226-0.516,0.473-0.78,0.726c0.121,0.995,0.688,1.84,1.293,2.663C45.157,9.583,45.377,9.273,45.596,8.969 M44.433,10.708
		c-0.613-0.916-1.113-1.896-1.278-2.993c-0.711,0.71-1.322,1.405-1.445,1.795c0.725,0.053,1.181,0.617,2.495,1.637
		C44.257,11.024,44.335,10.875,44.433,10.708 M48.728,5.081l-1.562-1.312c0,0,0.685-0.467,1.243-0.268
		c-0.003-0.017-0.006-0.034-0.006-0.052c0-0.249,0.21-0.449,0.469-0.449s0.469,0.201,0.469,0.449s-0.21,0.45-0.469,0.45
		c-0.019,0-0.036-0.003-0.055-0.005C49,4.376,48.728,5.081,48.728,5.081 M48.871,3.678c0.132,0,0.237-0.102,0.237-0.229
		c0-0.126-0.105-0.229-0.237-0.229s-0.237,0.103-0.237,0.229C48.634,3.576,48.739,3.678,48.871,3.678 M3.993,44.542
		c2.437-1.298,10.792-7.576,13.037-9.273l-0.081-1.181c-5.119,4.12-10.79,8.239-16.641,11.705c0,0,4.043,1.002,8.66-1.216
		c1.871-0.9,4.86-3.174,8.283-6.097l0.097-1.65l-0.287-1.123C14.562,37.701,5.858,44.542,3.993,44.542 M41.208,14.876
		c-0.632-0.256-1.058-0.542-1.546-0.991c-0.038-0.036-2.667,2.783-3.032,3.103c-0.052,0.045-0.452-0.04-0.405-0.099
		c0.311-0.391,3.134-3.287,3.108-3.314c-0.056-0.054-0.11-0.109-0.165-0.166c0,0-1.796,1.982-4.896,5.08
		c0.481,0.924,0.836,1.935,0.942,2.975C38.148,18.448,40.369,16.013,41.208,14.876 M38.891,11.119
		c0.277-1.637,2.268-1.861,3.677-0.832c1.43,1.044,2.255,2.622,4.062,1.763c3.281-1.559,1.278-4.728,0.661-5.466
		c-0.549-0.658-1.181-1.45-1.181-1.45L46.889,3.9l1.69,1.503l-0.672,0.671c2.155,1.252,3.014,5.151,0.785,7.657
		c-2.428,2.729-5.66,1.449-6.259,1.253C41.834,14.788,38.542,13.177,38.891,11.119 M43.467,13.629
		c-0.608-0.144-1.665,0.322-0.13,0.711c2.301,0.584,4.24-0.471,4.938-2.261c0,0-0.047,0.006-0.223,0.115
		C46.629,14.536,44.075,13.772,43.467,13.629 M45.25,13.159c0,0-2.946-1.321-4.437-0.375c-0.662,0.421,0.295,1.154,0.592,0.967
		C41.868,12.769,43.855,12.98,45.25,13.159 M39.927,12.663c0,0,0.733-1.57,3.893-0.452c-0.514-0.556-2.781-2.232-4.21-1.155
		C38.744,11.708,39.927,12.663,39.927,12.663 M36.807,13.016c0.572-0.876,1.306-0.268,2.2-0.268
		c-0.43-0.591-0.465-1.082-0.482-1.377C37.214,11.147,36.21,12.748,36.807,13.016"/>
</g>
</svg>
