<?xml version="1.0" encoding="utf-8"?>
<!-- Generator: Adobe Illustrator 15.1.0, SVG Export Plug-In . SVG Version: 6.00 Build 0)  -->
<!DOCTYPE svg PUBLIC "-//W3C//DTD SVG 1.1//EN" "http://www.w3.org/Graphics/SVG/1.1/DTD/svg11.dtd">
<svg version="1.1" id="Layer_1" xmlns="http://www.w3.org/2000/svg" xmlns:xlink="http://www.w3.org/1999/xlink" x="0px" y="0px"
	 width="100.598px" height="100.592px" viewBox="0 0 100.598 100.592" enable-background="new 0 0 100.598 100.592"
	 xml:space="preserve">
<path fill="#FFFFFF" d="M50.303,0C22.521,0,0,22.517,0,50.297c0,27.775,22.521,50.295,50.303,50.295
	c27.775,0,50.295-22.52,50.295-50.295C100.598,22.517,78.078,0,50.303,0z M75.303,37.473c0.025,0.553,0.031,1.113,0.031,1.67
	c0,17.048-12.97,36.698-36.695,36.698c-7.283,0-14.064-2.132-19.773-5.792c1.008,0.119,2.035,0.18,3.074,0.18
	c6.049,0,11.605-2.062,16.021-5.521c-5.644-0.106-10.402-3.835-12.05-8.96c0.79,0.151,1.597,0.233,2.429,0.233
	c1.178,0,2.315-0.159,3.402-0.454c-5.905-1.188-10.352-6.402-10.352-12.648v-0.163c1.739,0.966,3.732,1.547,5.842,1.612
	c-3.457-2.312-5.739-6.258-5.739-10.732c0-2.365,0.639-4.584,1.748-6.486c6.362,7.805,15.865,12.938,26.587,13.478
	c-0.218-0.944-0.333-1.927-0.333-2.938c0-7.126,5.776-12.901,12.899-12.901c3.711,0,7.062,1.567,9.412,4.077
	c2.939-0.582,5.703-1.654,8.195-3.136c-0.967,3.017-3.01,5.542-5.674,7.139c2.612-0.312,5.098-1.003,7.409-2.028
	C80.01,33.384,77.82,35.655,75.303,37.473z"/>
</svg>
